<?xml version="1.0" encoding="UTF-8"?>
<svg width="800" height="600" viewBox="0 0 800 600" xmlns="http://www.w3.org/2000/svg">
    <!-- 主楼体 -->
    <rect x="300" y="200" width="200" height="400" fill="#1a237e"/>
    
    <!-- 窗户 -->
    <g fill="#87CEEB">
        <!-- 左侧窗户 -->
        <rect x="320" y="220" width="30" height="40" rx="2"/>
        <rect x="320" y="280" width="30" height="40" rx="2"/>
        <rect x="320" y="340" width="30" height="40" rx="2"/>
        <rect x="320" y="400" width="30" height="40" rx="2"/>
        <rect x="320" y="460" width="30" height="40" rx="2"/>
        <rect x="320" y="520" width="30" height="40" rx="2"/>
        
        <!-- 右侧窗户 -->
        <rect x="450" y="220" width="30" height="40" rx="2"/>
        <rect x="450" y="280" width="30" height="40" rx="2"/>
        <rect x="450" y="340" width="30" height="40" rx="2"/>
        <rect x="450" y="400" width="30" height="40" rx="2"/>
        <rect x="450" y="460" width="30" height="40" rx="2"/>
        <rect x="450" y="520" width="30" height="40" rx="2"/>
    </g>
    
    <!-- 楼顶 -->
    <path d="M250 200 L400 100 L550 200 Z" fill="#3949ab"/>
    
    <!-- 门 -->
    <rect x="375" y="500" width="50" height="100" fill="#3949ab"/>
    
    <!-- 台阶 -->
    <rect x="350" y="580" width="100" height="10" fill="#3949ab"/>
    <rect x="360" y="590" width="80" height="10" fill="#3949ab"/>
</svg> 